<svg version="1.1" viewBox="0.0 0.0 220.11023622047244 247.95538057742783" fill="none" stroke="none" stroke-linecap="square" stroke-miterlimit="10" xmlns:xlink="http://www.w3.org/1999/xlink" xmlns="http://www.w3.org/2000/svg"><clipPath id="p.0"><path d="m0 0l220.11023 0l0 247.95538l-220.11023 0l0 -247.95538z" clip-rule="nonzero"/></clipPath><g clip-path="url(#p.0)"><path fill="#000000" fill-opacity="0.0" d="m0 0l220.11023 0l0 247.95538l-220.11023 0z" fill-rule="evenodd"/><g filter="url(#shadowFilter-p.1)"><use xlink:href="#p.1" transform="matrix(1.0 0.0 0.0 1.0 0.0 2.0)"/></g><defs><filter id="shadowFilter-p.1" filterUnits="userSpaceOnUse"><feGaussianBlur in="SourceAlpha" stdDeviation="2.0" result="blur"/><feComponentTransfer in="blur" color-interpolation-filters="sRGB"><feFuncR type="linear" slope="0" intercept="0.0"/><feFuncG type="linear" slope="0" intercept="0.0"/><feFuncB type="linear" slope="0" intercept="0.0"/><feFuncA type="linear" slope="0.5" intercept="0"/></feComponentTransfer></filter></defs><g id="p.1"><path fill="#f0131e" d="m109.826775 242.93832l-107.40153 -53.70079l0 -128.62991l107.40153 -53.70079l107.40153 53.70079l0 128.62991z" fill-rule="evenodd"/></g><path fill="#f0131e" d="m24.96063 51.33202l169.73228 0l0 147.1811l-169.73228 0z" fill-rule="evenodd"/><path fill="#f3f3f3" d="m85.87549 182.52255l-23.843754 0q-4.40625 0 -6.75 -2.328125q-2.328125 -2.34375 -2.328125 -6.765625l0 -103.67187q0 -4.421875 2.328125 -6.750004q2.34375 -2.34375 6.75 -2.34375l25.765629 0q3.578125 0 6.0 1.625q2.4375 1.625 4.265625 4.875004l14.390625 26.09375q0.640625 1.140625 0.3125 1.6875q-0.328125 0.53125 -0.328125 -0.671875l1.4375 0q0 1.21875 -0.328125 0.671875q-0.328125 -0.546875 0.28125 -1.671875l14.265625 -26.09375q1.828125 -3.2656288 4.25 -4.890629q2.4375 -1.625 6.015625 -1.625l25.921875 0q4.40625 0 6.734375 2.34375q2.34375 2.3281288 2.34375 6.750004l0 103.67187q0 4.421875 -2.34375 6.765625q-2.328125 2.328125 -6.734375 2.328125l-24.640625 0q-4.421875 0 -6.765625 -2.328125q-2.328125 -2.34375 -2.328125 -6.765625l0 -43.171875l-3.171875 5.859375q-1.859375 3.53125 -4.65625 5.21875q-2.796875 1.671875 -6.765625 1.671875l-6.40625 0q-3.953125 0 -6.75 -1.671875q-2.796875 -1.6875 -4.65625 -5.21875l-3.171875 -5.859375l0 43.171875q0 4.421875 -2.34375 6.765625q-2.328125 2.328125 -6.75 2.328125z" fill-rule="nonzero"/></g></svg>