<svg width="39" height="39" viewBox="0 0 39 39" fill="none" xmlns="http://www.w3.org/2000/svg">
<path d="M33.3269 5.74988C29.6541 2.0566 24.7629 0.0146154 19.5542 8.35168e-05C19.5355 0 19.5172 0 19.4984 0C14.3107 0 9.4299 2.01351 5.7498 5.67313C2.0566 9.34595 0.0145265 14.2372 7.80655e-05 19.4457C-0.0144539 24.6543 2.00031 29.5568 5.67314 33.2501C9.34596 36.9434 14.2371 38.9854 19.4457 38.9999C19.4645 39 19.4826 39 19.5014 39C24.689 39 29.5702 36.9864 33.2501 33.3268C36.9434 29.654 38.9854 24.7628 38.9999 19.5543C39.0145 14.3457 36.9997 9.44316 33.3269 5.74988ZM19.5013 38.0813C19.4838 38.0813 19.4658 38.0813 19.4483 38.0812C15.448 38.0701 11.6448 36.8032 8.48699 34.4697C9.24908 33.1512 10.258 31.9629 11.4354 30.9948C13.252 33.4832 16.1901 35.1034 19.5 35.1034C22.8071 35.1034 25.743 33.4861 27.5599 31.0013C28.7378 31.9694 29.7471 33.1567 30.5096 34.473C27.3371 36.8161 23.5159 38.0813 19.5013 38.0813ZM29.4797 19.5249C29.7732 19.6172 30.0312 19.7959 30.2215 20.0457C30.4647 20.3649 30.5691 20.7598 30.5154 21.1575C30.4616 21.5553 30.2563 21.9082 29.9371 22.1514C29.7973 22.258 29.6424 22.3361 29.4797 22.3878V19.5249ZM22.3755 15.7858C22.6207 16.0986 22.959 15.9686 23.4271 15.7817C25.218 15.066 27.2092 14.6235 28.4395 16.6464C28.4746 16.97 28.5017 17.2999 28.5216 17.644L26.5993 21.0375C25.8599 22.3427 24.3273 22.9996 22.872 22.6356C20.6662 22.083 18.3342 22.083 16.1282 22.6356C14.6733 22.9999 13.1404 22.3428 12.4009 21.0375L10.6229 17.8986C11.1453 16.3361 12.6353 14.6129 15.4829 13.9233C18.2585 13.2509 20.9638 13.9837 22.3755 15.7858ZM23.9006 14.6144C24.0116 14.4134 24.1216 14.1931 24.2214 13.9547C24.7309 12.7386 24.7759 11.5668 24.3624 10.5238C24.8408 10.5564 25.5316 10.714 26.2119 11.2599C27.1264 11.9938 27.7844 13.244 28.1674 14.9489C26.7688 13.8972 25.0526 14.231 23.9006 14.6144ZM23.2576 10.3635C23.6729 11.0371 23.8104 11.7854 23.6717 12.5972C23.024 11.5636 21.6232 10.0007 18.922 9.56927C18.6708 9.52818 18.436 9.69981 18.396 9.95036C18.356 10.2008 18.5266 10.4363 18.7771 10.4763C22.178 11.0196 23.188 13.5937 23.2724 13.8259C23.1963 13.987 23.1163 14.1376 23.0364 14.2758C22.7789 13.8373 22.3724 13.2705 21.7666 12.7294C20.6572 11.7385 18.6399 10.6444 15.3266 11.0582C15.0749 11.0897 14.8964 11.3193 14.9278 11.5711C14.9594 11.8228 15.1889 12.0009 15.4407 11.9699C17.8047 11.6741 19.7159 12.1503 21.1207 13.3844C21.3089 13.5498 21.4748 13.7185 21.621 13.8842C19.9211 12.8007 17.6078 12.4607 15.2664 13.0277C12.8196 13.6203 10.9258 15.0491 10.0324 16.9002C9.85517 14.5971 10.0688 11.2956 12.3112 9.43523C13.9912 8.0415 15.6983 7.3382 17.3962 7.3382C17.6232 7.3382 17.8504 7.35073 18.0771 7.37604C21.0583 7.7076 23.0753 10.1364 23.2576 10.3635ZM9.46255 19.5681C9.47224 19.862 9.49145 20.1534 9.52043 20.4583V22.3684C9.37987 22.317 9.24624 22.2446 9.12389 22.1514C8.80469 21.9082 8.59932 21.5552 8.54554 21.1575C8.49183 20.7598 8.59623 20.365 8.83952 20.0457C9.00354 19.8302 9.21843 19.6682 9.46255 19.5681ZM10.4391 19.4382L11.6016 21.4903C12.5437 23.1537 14.4972 23.9909 16.3513 23.5266C18.4113 23.0108 20.5888 23.0108 22.6488 23.5266C24.503 23.9912 26.4563 23.1536 27.3985 21.4903L28.561 19.4382V25.1237C28.561 30.1199 24.4963 34.1846 19.5 34.1846C14.5038 34.1846 10.4391 30.1199 10.4391 25.1237V19.4382ZM32.6024 32.6754C32.1656 33.1096 31.7111 33.5195 31.2406 33.9046C30.415 32.5097 29.3314 31.2533 28.0703 30.2313C28.9648 28.7362 29.4797 26.989 29.4797 25.1237V23.3342C29.844 23.265 30.1903 23.1133 30.4939 22.882C31.0083 22.4901 31.3392 21.9212 31.4258 21.2803C31.5124 20.6394 31.3441 20.0032 30.9521 19.4888C30.5857 19.0079 30.0647 18.6875 29.4747 18.5771C29.4049 14.5993 28.5018 11.9401 26.7867 10.5639C25.602 9.6132 24.3752 9.56551 23.8287 9.61328C23.2366 8.92661 21.1822 6.80102 18.1881 6.46395C16.0062 6.21858 13.8318 6.98025 11.7248 8.72809C10.007 10.1532 9.08639 12.5117 9.06276 15.5486C9.05307 16.7832 9.19037 17.886 9.31957 18.6431C8.83993 18.7903 8.41893 19.0818 8.10883 19.4887C7.71688 20.0031 7.54859 20.6393 7.6352 21.2802C7.72172 21.9212 8.0527 22.4899 8.56708 22.8819C8.85363 23.1003 9.17851 23.2474 9.52043 23.3216V25.1236C9.52043 26.9861 10.0338 28.7306 10.9257 30.2242C9.66475 31.2463 8.58137 32.5038 7.75613 33.9009C7.26054 33.4952 6.78241 33.0625 6.32465 32.6021C2.82487 29.0828 0.905068 24.4114 0.918849 19.4481C0.932629 14.4849 2.87841 9.82416 6.39773 6.32431C9.90444 2.83715 14.5549 0.918685 19.4985 0.918685C19.516 0.918685 19.5341 0.918685 19.5517 0.918768C24.515 0.932548 29.1757 2.87841 32.6755 6.39772C36.1753 9.91703 38.0951 14.5885 38.0813 19.5517C38.0675 24.5149 36.1216 29.1757 32.6024 32.6754Z" fill="white"/>
<path d="M14.3002 21.5639C14.7998 21.5639 15.2048 21.1589 15.2048 20.6593C15.2048 20.1597 14.7998 19.7547 14.3002 19.7547C13.8006 19.7547 13.3956 20.1597 13.3956 20.6593C13.3956 21.1589 13.8006 21.5639 14.3002 21.5639Z" fill="white"/>
<path d="M14.3002 21.5639C14.7998 21.5639 15.2048 21.1589 15.2048 20.6593C15.2048 20.1597 14.7998 19.7547 14.3002 19.7547C13.8006 19.7547 13.3956 20.1597 13.3956 20.6593C13.3956 21.1589 13.8006 21.5639 14.3002 21.5639Z" stroke="white"/>
<path d="M24.6998 21.5639C25.1994 21.5639 25.6043 21.1589 25.6043 20.6593C25.6043 20.1597 25.1994 19.7547 24.6998 19.7547C24.2002 19.7547 23.7952 20.1597 23.7952 20.6593C23.7952 21.1589 24.2002 21.5639 24.6998 21.5639Z" fill="white"/>
<path d="M24.6998 21.5639C25.1994 21.5639 25.6043 21.1589 25.6043 20.6593C25.6043 20.1597 25.1994 19.7547 24.6998 19.7547C24.2002 19.7547 23.7952 20.1597 23.7952 20.6593C23.7952 21.1589 24.2002 21.5639 24.6998 21.5639Z" stroke="white"/>
<path d="M18.3967 26.3072C18.5671 26.1639 18.9774 25.9965 19.5729 25.9965C20.1679 25.9965 20.5779 26.1639 20.7484 26.3073C20.8345 26.3796 20.9395 26.415 21.0438 26.415C21.1747 26.415 21.3048 26.3593 21.3956 26.2513C21.5588 26.0572 21.5338 25.7674 21.3397 25.6041C20.9478 25.2746 20.2873 25.0779 19.5729 25.0779C18.8579 25.0779 18.1972 25.2745 17.8054 25.6042C17.6112 25.7674 17.5863 26.0573 17.7495 26.2513C17.9128 26.4455 18.2025 26.4704 18.3967 26.3072Z" fill="white"/>
<path d="M18.3967 26.3072C18.5671 26.1639 18.9774 25.9965 19.5729 25.9965C20.1679 25.9965 20.5779 26.1639 20.7484 26.3073C20.8345 26.3796 20.9395 26.415 21.0438 26.415C21.1747 26.415 21.3048 26.3593 21.3956 26.2513C21.5588 26.0572 21.5338 25.7674 21.3397 25.6041C20.9478 25.2746 20.2873 25.0779 19.5729 25.0779C18.8579 25.0779 18.1972 25.2745 17.8054 25.6042C17.6112 25.7674 17.5863 26.0573 17.7495 26.2513C17.9128 26.4455 18.2025 26.4704 18.3967 26.3072Z" stroke="white"/>
<path d="M20.0013 26.6827H19.2497C18.996 26.6827 18.7903 26.8884 18.7903 27.1421C18.7903 27.3957 18.996 27.6014 19.2497 27.6014H20.0013C20.255 27.6014 20.4607 27.3957 20.4607 27.1421C20.4607 26.8884 20.255 26.6827 20.0013 26.6827Z" fill="white"/>
<path d="M20.0013 26.6827H19.2497C18.996 26.6827 18.7903 26.8884 18.7903 27.1421C18.7903 27.3957 18.996 27.6014 19.2497 27.6014H20.0013C20.255 27.6014 20.4607 27.3957 20.4607 27.1421C20.4607 26.8884 20.255 26.6827 20.0013 26.6827Z" stroke="white"/>
</svg>
