<svg width="39" height="39" viewBox="0 0 39 39" fill="none" xmlns="http://www.w3.org/2000/svg">
<g clip-path="url(#clip0)">
<path d="M28 19H4.99997C3.34597 19 1.99996 20.346 1.99996 22V36C1.99996 37.654 3.34597 39 4.99997 39H28C29.654 39 31 37.654 31 36V22C31 20.346 29.654 19 28 19ZM29 36C29 36.551 28.551 37 28 37H4.99997C4.44899 37 3.99999 36.551 3.99999 36V22C3.99999 21.449 4.44899 21 4.99997 21H28C28.5509 21 28.9999 21.449 28.9999 22V36H29ZM38.5 20.134C38.19 19.9549 37.81 19.9549 37.5 20.134L32.5 23.021L33.5 24.753L37 22.732V35.274L33.506 33.257L32.506 34.9891L37.5 37.872C37.655 37.961 37.827 38.0061 38 38.0061C38.173 38.0061 38.345 37.962 38.5001 37.872C38.81 37.693 39.0001 37.363 39.0001 37.006V21C39 20.643 38.81 20.312 38.5 20.134ZM26 0C21.038 0 17 4.03803 17 9.00002C17 13.962 21.038 18 26 18C30.962 18 34.9999 13.962 34.9999 9.00002C34.9999 4.03803 30.962 0 26 0ZM26 16C22.14 16 19 12.86 19 9.00002C19 5.13997 22.14 2.00002 26 2.00002C29.86 2.00002 33 5.13997 33 9.00002C33 12.86 29.86 16 26 16ZM6.99999 18C10.86 18 14 14.86 14 11C14 7.14 10.86 3.99999 6.99999 3.99999C3.14001 3.99999 0 7.14 0 11C0 14.86 3.14001 18 6.99999 18ZM6.99999 6.00001C9.75701 6.00001 12 8.24302 12 11C12 13.7569 9.75695 16 6.99999 16C4.24303 16 2.00002 13.757 2.00002 11C2.00002 8.24296 4.24303 6.00001 6.99999 6.00001ZM26 6.99999C24.896 6.99999 24 7.89597 24 9.00002C24 10.104 24.896 11 26 11C27.104 11 28 10.104 28 9.00002C28 7.89597 27.104 6.99999 26 6.99999ZM6.99999 12C7.55198 12 7.99997 11.552 7.99997 11C7.99997 10.448 7.55198 10.0001 6.99999 10.0001C6.448 10.0001 6.00001 10.448 6.00001 11C6.00001 11.552 6.448 12 6.99999 12Z" fill="white"/>
</g>
<defs>
<clipPath id="clip0">
<rect width="39" height="39" fill="white"/>
</clipPath>
</defs>
</svg>
