<svg width="39" height="39" viewBox="0 0 39 39" fill="none" xmlns="http://www.w3.org/2000/svg">
<path d="M36.4241 9.20407H19.1651C21.7125 6.76274 24.2593 4.32081 26.8067 1.87948C27.5122 1.20369 26.4394 0.132736 25.7351 0.807919C22.9429 3.48441 20.1506 6.1609 17.3584 8.83738C15.9941 7.08518 14.6298 5.33358 13.2655 3.58138C12.6673 2.81286 11.6018 3.89231 12.1939 4.65295C13.3752 6.16999 14.5564 7.68703 15.7377 9.20407H2.57588C1.15581 9.20407 0 10.3593 0 11.7799V33.6282C0 35.0489 1.15581 36.2041 2.57588 36.2041H3.0662C3.0662 36.6944 3.0662 37.1848 3.0662 37.6751C3.0662 38.6503 4.58143 38.6515 4.58143 37.6751C4.58143 37.1848 4.58143 36.6944 4.58143 36.2041H34.4186C34.4186 36.6944 34.4186 37.1848 34.4186 37.6751C34.4186 38.6503 35.9338 38.6515 35.9338 37.6751C35.9338 37.1848 35.9338 36.6944 35.9338 36.2041H36.4241C37.8442 36.2041 39 35.0489 39 33.6282V11.7799C39 10.3593 37.8442 9.20407 36.4241 9.20407ZM37.4848 33.6282C37.4848 34.2131 37.009 34.6889 36.4241 34.6889H2.57588C1.991 34.6889 1.51522 34.2131 1.51522 33.6282V11.7799C1.51522 11.1951 1.991 10.7193 2.57588 10.7193H36.4241C37.009 10.7193 37.4848 11.1951 37.4848 11.7799V33.6282Z" fill="white"/>
<path d="M27.3807 13.1709H6.53486C5.1148 13.1709 3.95898 14.3261 3.95898 15.7468V30.3293C3.95898 31.75 5.1148 32.9052 6.53486 32.9052H27.3807C28.8007 32.9052 29.9566 31.75 29.9566 30.3293V15.7468C29.9566 14.3261 28.8007 13.1709 27.3807 13.1709ZM28.4413 30.3287C28.4413 30.9136 27.9656 31.3894 27.3807 31.3894H6.53486C5.94999 31.3894 5.47421 30.9136 5.47421 30.3287V15.7462C5.47421 15.1613 5.94999 14.6855 6.53486 14.6855H27.3807C27.9656 14.6855 28.4413 15.1613 28.4413 15.7462V30.3287Z" fill="white"/>
<path d="M34.2246 17.6554C35.0293 17.6554 35.6817 17.003 35.6817 16.1983C35.6817 15.3936 35.0293 14.7413 34.2246 14.7413C33.4199 14.7413 32.7676 15.3936 32.7676 16.1983C32.7676 17.003 33.4199 17.6554 34.2246 17.6554Z" fill="white"/>
<path d="M34.2246 22.2156C35.0293 22.2156 35.6817 21.5633 35.6817 20.7586C35.6817 19.9539 35.0293 19.3015 34.2246 19.3015C33.4199 19.3015 32.7676 19.9539 32.7676 20.7586C32.7676 21.5633 33.4199 22.2156 34.2246 22.2156Z" fill="white"/>
<path d="M12.123 28.6886C11.1448 28.6886 9.92167 28.9062 8.97254 28.6395C7.5755 28.2468 7.97007 26.1764 7.97007 25.0763C7.97007 24.4914 7.06093 24.4902 7.06093 25.0763C7.06093 26.4406 6.73183 28.2298 7.99492 29.1553C9.06103 29.9359 10.8841 29.5977 12.123 29.5977C12.7085 29.5977 12.7091 28.6886 12.123 28.6886Z" fill="white"/>
</svg>
